<?xml version="1.0" encoding="utf-8"?>
<!-- Generator: Adobe Illustrator 15.1.0, SVG Export Plug-In . SVG Version: 6.00 Build 0)  -->
<!DOCTYPE svg PUBLIC "-//W3C//DTD SVG 1.1//EN" "http://www.w3.org/Graphics/SVG/1.1/DTD/svg11.dtd">
<svg version="1.1" id="Layer_1" xmlns="http://www.w3.org/2000/svg" xmlns:xlink="http://www.w3.org/1999/xlink" x="0px" y="0px"
	 width="595.279px" height="841.891px" viewBox="0 0 595.279 841.891" enable-background="new 0 0 595.279 841.891"
	 xml:space="preserve">
<g>
	<path fill="#FFFFFF" d="M578.073,243.206c-20.827,9.927-43.211,16.739-66.568,19.659c23.941-15.376,42.433-39.902,50.997-68.905
		c-22.578,14.21-47.299,24.72-73.771,30.17c-21.217-24.136-51.386-39.318-84.67-39.318c-64.039,0-116.009,55.863-116.009,124.573
		c0,9.732,0.974,19.27,3.115,28.418c-96.349-5.255-181.798-54.89-239.219-130.218c-9.926,18.492-15.572,39.903-15.572,62.676
		c0,43.211,20.438,81.361,51.581,103.745c-19.074-0.583-36.981-6.228-52.553-15.571v1.558c0,60.535,39.902,110.753,93.039,122.236
		c-9.731,2.92-19.854,4.477-30.559,4.477c-7.396,0-14.792-0.777-21.8-2.335c14.793,49.634,57.615,85.644,108.418,86.617
		C144.794,604.272,94.77,624.32,40.465,624.32c-9.343,0-18.686-0.584-27.64-1.751c51.386,35.229,112.311,56.058,177.711,56.058
		c213.33,0,330.117-189.973,330.117-354.643c0-5.451,0-10.706-0.389-16.156C542.843,290.116,562.502,268.12,578.073,243.206"/>
</g>
</svg>
